<svg width="27" height="27" viewBox="0 0 27 27" fill="none" xmlns="http://www.w3.org/2000/svg">
<path d="M26.0938 9.34927C26.0938 8.66085 25.8655 8.00062 25.4592 7.51384C25.0528 7.02705 24.5018 6.75357 23.9271 6.75357H22.0898C22.3581 6.10898 22.4948 5.39726 22.4885 4.67702C22.4954 4.06641 22.4009 3.46024 22.2107 2.89373C22.0204 2.32721 21.738 1.81164 21.38 1.37694C21.022 0.942248 20.5955 0.597099 20.1252 0.361541C19.655 0.125984 19.1503 0.00471091 18.6406 0.00476667C17.5636 -0.040218 16.4939 0.233771 15.5264 0.802455C14.5589 1.37114 13.7235 2.21696 13.0941 3.26496C12.4647 2.21696 11.6292 1.37114 10.6617 0.802455C9.69419 0.233771 8.62454 -0.040218 7.54753 0.00476667C6.527 0.00476667 5.54827 0.490457 4.82665 1.35499C4.10502 2.21953 3.69962 3.39209 3.69962 4.61472C3.69337 5.33496 3.83 6.04668 4.09828 6.69128H2.26099C1.97204 6.69118 1.68599 6.76033 1.41967 6.89465C1.15336 7.02897 0.912163 7.22576 0.710279 7.47343C0.508396 7.7211 0.349904 8.01465 0.24413 8.3368C0.138357 8.65895 0.0874392 9.00319 0.0943741 9.34927V14.5407H2.26099V24.4874C2.279 25.1613 2.51519 25.8004 2.91958 26.2693C3.32396 26.7383 3.86479 27.0003 4.4276 27H21.7605C22.3351 27 22.8862 26.7265 23.2925 26.2397C23.6989 25.753 23.9271 25.0927 23.9271 24.4043V14.4576H26.0938V9.34927ZM18.6406 2.60046C19.1003 2.60046 19.5412 2.81924 19.8662 3.20867C20.1913 3.5981 20.3739 4.12628 20.3739 4.67702C20.3739 5.22776 20.1913 5.75594 19.8662 6.14537C19.5412 6.5348 19.1003 6.75357 18.6406 6.75357H14.2727C14.4273 5.52782 14.9639 4.41782 15.7744 3.64717C16.5849 2.87652 17.6091 2.5025 18.6406 2.60046ZM7.54753 2.60046C8.57904 2.5025 9.6032 2.87652 10.4137 3.64717C11.2242 4.41782 11.7608 5.52782 11.9154 6.75357H7.54753C7.16459 6.64902 6.82264 6.39175 6.57771 6.02391C6.33278 5.65607 6.19938 5.19948 6.19938 4.72893C6.19938 4.25839 6.33278 3.8018 6.57771 3.43396C6.82264 3.06612 7.16459 2.80885 7.54753 2.70429V2.60046ZM2.26099 9.34927H9.83547V11.8619H2.26099V9.34927ZM9.83547 24.4874H4.4276V14.4576H9.83547V24.4874ZM12.0194 24.4874V9.34927H14.1687V24.4874H12.0194ZM21.7605 24.4874H16.3527V14.4576H21.7605V24.4874ZM23.9271 12.028H16.3527V9.34927H23.9271V12.028Z" fill="black"/>
</svg>
