<svg width="18" height="18" viewBox="0 0 18 18" fill="none" xmlns="http://www.w3.org/2000/svg">
<path d="M17.8325 0.657159C17.9118 0.732216 17.9661 0.827635 17.9885 0.931565C18.0109 1.03549 18.0005 1.14335 17.9585 1.24174L11.2894 16.9898C11.2306 17.1285 11.1325 17.2492 11.0058 17.3386C10.8791 17.428 10.7287 17.4826 10.5712 17.4965C10.4137 17.5104 10.2553 17.4829 10.1132 17.4172C9.97122 17.3515 9.85113 17.2501 9.76621 17.124L6.12391 11.7166L0.399134 8.27624C0.265405 8.19612 0.15771 8.08265 0.0879332 7.94837C0.0181566 7.81408 -0.0109891 7.6642 0.00371211 7.51526C0.0184133 7.36632 0.0763899 7.22411 0.171244 7.10432C0.266099 6.98454 0.394144 6.89183 0.541251 6.83643L17.2136 0.53916C17.3177 0.499551 17.4319 0.489722 17.542 0.510893C17.652 0.532063 17.753 0.583301 17.8325 0.658242V0.657159ZM7.26772 11.4005L10.4321 16.0967L15.8566 3.28779L7.26772 11.4005ZM15.0463 2.52242L1.48564 7.64619L6.45857 10.6341L15.0474 2.52242H15.0463Z" fill="black"/>
</svg>
