<svg width="37" height="36" viewBox="0 0 37 36" fill="none" xmlns="http://www.w3.org/2000/svg">
<g filter="url(#filter0_i_29_233)">
<g filter="url(#filter1_d_29_233)">
<circle cx="18.1281" cy="14" r="14" fill="#F2F3F5"/>
</g>
<path d="M24.0424 19.9145H21.5532V16.0162C21.5532 15.0866 21.5366 13.8899 20.2586 13.8899C18.9621 13.8899 18.7637 14.9028 18.7637 15.9485V19.9142H16.2745V11.8977H18.6642V12.9933H18.6976C18.9368 12.5844 19.2823 12.248 19.6975 12.0199C20.1127 11.7919 20.582 11.6807 21.0554 11.6983C23.5783 11.6983 24.0435 13.3578 24.0435 15.5168L24.0424 19.9145ZM13.4658 10.802C12.668 10.8021 12.0211 10.1555 12.021 9.35765C12.0209 8.55985 12.6675 7.91298 13.4653 7.91285C14.2631 7.91265 14.9099 8.55932 14.9101 9.35712C14.9101 9.74024 14.758 10.1077 14.4872 10.3787C14.2163 10.6496 13.8489 10.8019 13.4658 10.802ZM14.7104 19.9145H12.2186V11.8977H14.7104L14.7104 19.9145ZM25.2834 5.60108H10.9678C10.2912 5.59346 9.73633 6.13546 9.72806 6.81205V21.1874C9.73606 21.8643 10.2909 22.4069 10.9677 22.3998H25.2834C25.9617 22.4082 26.5187 21.8656 26.5281 21.1874V6.81094C26.5184 6.13303 25.9614 5.5911 25.2834 5.59996" fill="#0A66C2"/>
</g>
<defs>
<filter id="filter0_i_29_233" x="4.12805" y="0" width="28" height="32" filterUnits="userSpaceOnUse" color-interpolation-filters="sRGB">
<feFlood flood-opacity="0" result="BackgroundImageFix"/>
<feBlend mode="normal" in="SourceGraphic" in2="BackgroundImageFix" result="shape"/>
<feColorMatrix in="SourceAlpha" type="matrix" values="0 0 0 0 0 0 0 0 0 0 0 0 0 0 0 0 0 0 127 0" result="hardAlpha"/>
<feOffset dy="4"/>
<feGaussianBlur stdDeviation="2"/>
<feComposite in2="hardAlpha" operator="arithmetic" k2="-1" k3="1"/>
<feColorMatrix type="matrix" values="0 0 0 0 0 0 0 0 0 0 0 0 0 0 0 0 0 0 0.25 0"/>
<feBlend mode="normal" in2="shape" result="effect1_innerShadow_29_233"/>
</filter>
<filter id="filter1_d_29_233" x="0.128052" y="0" width="36" height="36" filterUnits="userSpaceOnUse" color-interpolation-filters="sRGB">
<feFlood flood-opacity="0" result="BackgroundImageFix"/>
<feColorMatrix in="SourceAlpha" type="matrix" values="0 0 0 0 0 0 0 0 0 0 0 0 0 0 0 0 0 0 127 0" result="hardAlpha"/>
<feOffset dy="4"/>
<feGaussianBlur stdDeviation="2"/>
<feComposite in2="hardAlpha" operator="out"/>
<feColorMatrix type="matrix" values="0 0 0 0 0 0 0 0 0 0 0 0 0 0 0 0 0 0 0.25 0"/>
<feBlend mode="normal" in2="BackgroundImageFix" result="effect1_dropShadow_29_233"/>
<feBlend mode="normal" in="SourceGraphic" in2="effect1_dropShadow_29_233" result="shape"/>
</filter>
</defs>
</svg>
