<svg width="37" height="36" viewBox="0 0 37 36" fill="none" xmlns="http://www.w3.org/2000/svg">
<g filter="url(#filter0_i_29_236)">
<g filter="url(#filter1_d_29_236)">
<circle cx="18.1281" cy="14" r="14" fill="#F2F3F5"/>
</g>
<path d="M26.5281 9.13979C25.899 9.45012 25.2317 9.65382 24.5484 9.74412C25.2601 9.26913 25.8066 8.51696 26.0639 7.62077C25.3873 8.06783 24.6471 8.38282 23.8752 8.55211C23.2465 7.80624 22.3508 7.34009 21.3594 7.34009C19.4558 7.34009 17.9125 9.05853 17.9125 11.178C17.9125 11.4789 17.9431 11.7717 18.0018 12.0527C15.1373 11.8926 12.5976 10.3647 10.8976 8.04263C10.6009 8.60948 10.431 9.26884 10.431 9.97211C10.431 11.3037 11.0395 12.4784 11.9643 13.1667C11.4169 13.1476 10.8816 12.983 10.4031 12.6866C10.4029 12.7026 10.4029 12.7187 10.4029 12.7349C10.4029 14.5944 11.591 16.1457 13.1677 16.4982C12.6601 16.652 12.1277 16.6744 11.6112 16.564C12.0497 18.0888 13.3227 19.1984 14.8309 19.2294C13.6513 20.2588 12.165 20.8724 10.5503 20.8724C10.272 20.8724 9.99771 20.8542 9.72806 20.8187C11.2534 21.9077 13.0651 22.5431 15.0115 22.5431C21.3514 22.5431 24.8181 16.6948 24.8181 11.6231C24.8181 11.4566 24.8149 11.2911 24.8082 11.1266C25.4829 10.5834 26.0653 9.91059 26.5281 9.13979Z" fill="#55ACEE"/>
</g>
<defs>
<filter id="filter0_i_29_236" x="4.12805" y="0" width="28" height="32" filterUnits="userSpaceOnUse" color-interpolation-filters="sRGB">
<feFlood flood-opacity="0" result="BackgroundImageFix"/>
<feBlend mode="normal" in="SourceGraphic" in2="BackgroundImageFix" result="shape"/>
<feColorMatrix in="SourceAlpha" type="matrix" values="0 0 0 0 0 0 0 0 0 0 0 0 0 0 0 0 0 0 127 0" result="hardAlpha"/>
<feOffset dy="4"/>
<feGaussianBlur stdDeviation="2"/>
<feComposite in2="hardAlpha" operator="arithmetic" k2="-1" k3="1"/>
<feColorMatrix type="matrix" values="0 0 0 0 0 0 0 0 0 0 0 0 0 0 0 0 0 0 0.25 0"/>
<feBlend mode="normal" in2="shape" result="effect1_innerShadow_29_236"/>
</filter>
<filter id="filter1_d_29_236" x="0.128052" y="0" width="36" height="36" filterUnits="userSpaceOnUse" color-interpolation-filters="sRGB">
<feFlood flood-opacity="0" result="BackgroundImageFix"/>
<feColorMatrix in="SourceAlpha" type="matrix" values="0 0 0 0 0 0 0 0 0 0 0 0 0 0 0 0 0 0 127 0" result="hardAlpha"/>
<feOffset dy="4"/>
<feGaussianBlur stdDeviation="2"/>
<feComposite in2="hardAlpha" operator="out"/>
<feColorMatrix type="matrix" values="0 0 0 0 0 0 0 0 0 0 0 0 0 0 0 0 0 0 0.25 0"/>
<feBlend mode="normal" in2="BackgroundImageFix" result="effect1_dropShadow_29_236"/>
<feBlend mode="normal" in="SourceGraphic" in2="effect1_dropShadow_29_236" result="shape"/>
</filter>
</defs>
</svg>
