<svg width="37" height="36" viewBox="0 0 37 36" fill="none" xmlns="http://www.w3.org/2000/svg">
<g filter="url(#filter0_i_29_239)">
<g filter="url(#filter1_d_29_239)">
<circle cx="18.1281" cy="14" r="14" fill="#F2F3F5"/>
</g>
<path d="M13.5462 20.4434V13.9525L11.5332 12.1108L9.72806 11.0889V19.2979C9.72806 19.9317 10.2416 20.4434 10.8735 20.4434H13.5462Z" fill="#4285F4"/>
<path d="M22.71 20.4434H25.3827C26.0165 20.4434 26.5281 19.9298 26.5281 19.2979V11.0889L24.4835 12.2594L22.71 13.9524V20.4434Z" fill="#34A853"/>
<path d="M13.5457 13.9524L13.2718 11.4162L13.5457 8.98877L18.1275 12.4251L22.7093 8.98877L23.0157 11.2851L22.7093 13.9524L18.1275 17.3887L13.5457 13.9524Z" fill="#EA4335"/>
<path d="M22.71 8.98852V13.9521L26.5281 11.0885V9.56123C26.5281 8.14472 24.9111 7.3372 23.7791 8.18672L22.71 8.98852Z" fill="#FBBC04"/>
<path d="M9.72806 11.0885L11.4841 12.4056L13.5462 13.9521V8.98855L12.4771 8.18675C11.3431 7.33717 9.72806 8.14475 9.72806 9.56119V11.0885V11.0885Z" fill="#C5221F"/>
</g>
<defs>
<filter id="filter0_i_29_239" x="4.12805" y="0" width="28" height="32" filterUnits="userSpaceOnUse" color-interpolation-filters="sRGB">
<feFlood flood-opacity="0" result="BackgroundImageFix"/>
<feBlend mode="normal" in="SourceGraphic" in2="BackgroundImageFix" result="shape"/>
<feColorMatrix in="SourceAlpha" type="matrix" values="0 0 0 0 0 0 0 0 0 0 0 0 0 0 0 0 0 0 127 0" result="hardAlpha"/>
<feOffset dy="4"/>
<feGaussianBlur stdDeviation="2"/>
<feComposite in2="hardAlpha" operator="arithmetic" k2="-1" k3="1"/>
<feColorMatrix type="matrix" values="0 0 0 0 0 0 0 0 0 0 0 0 0 0 0 0 0 0 0.25 0"/>
<feBlend mode="normal" in2="shape" result="effect1_innerShadow_29_239"/>
</filter>
<filter id="filter1_d_29_239" x="0.128052" y="0" width="36" height="36" filterUnits="userSpaceOnUse" color-interpolation-filters="sRGB">
<feFlood flood-opacity="0" result="BackgroundImageFix"/>
<feColorMatrix in="SourceAlpha" type="matrix" values="0 0 0 0 0 0 0 0 0 0 0 0 0 0 0 0 0 0 127 0" result="hardAlpha"/>
<feOffset dy="4"/>
<feGaussianBlur stdDeviation="2"/>
<feComposite in2="hardAlpha" operator="out"/>
<feColorMatrix type="matrix" values="0 0 0 0 0 0 0 0 0 0 0 0 0 0 0 0 0 0 0.25 0"/>
<feBlend mode="normal" in2="BackgroundImageFix" result="effect1_dropShadow_29_239"/>
<feBlend mode="normal" in="SourceGraphic" in2="effect1_dropShadow_29_239" result="shape"/>
</filter>
</defs>
</svg>
