<svg width="138" height="29" viewBox="0 0 138 29" fill="none" xmlns="http://www.w3.org/2000/svg">
<path d="M11.5 21.8455L6.10172 25.9416C5.83424 26.1591 5.54244 26.2615 5.22632 26.249C4.91021 26.2374 4.63057 26.147 4.3874 25.9778C4.14424 25.8087 3.95603 25.5791 3.82277 25.2891C3.68854 24.9991 3.68222 24.685 3.80381 24.3466L5.88287 17.6407L0.594019 13.9071C0.30222 13.7137 0.119846 13.46 0.0468962 13.1459C-0.0260535 12.8317 -0.0138951 12.5417 0.0833712 12.2759C0.180637 12.0101 0.350853 11.7742 0.594019 11.5683C0.837185 11.3634 1.12898 11.2609 1.46942 11.2609H7.99841L10.114 4.30121C10.2355 3.96289 10.4242 3.70287 10.68 3.52114C10.9349 3.34038 11.2082 3.25 11.5 3.25C11.7918 3.25 12.0651 3.34038 12.32 3.52114C12.5758 3.70287 12.7645 3.96289 12.886 4.30121L15.0016 11.2609H21.5306C21.871 11.2609 22.1628 11.3634 22.406 11.5683C22.6491 11.7742 22.8194 12.0101 22.9166 12.2759C23.0139 12.5417 23.0261 12.8317 22.9531 13.1459C22.8802 13.46 22.6978 13.7137 22.406 13.9071L17.1171 17.6407L19.1962 24.3466C19.3178 24.685 19.3119 24.9991 19.1787 25.2891C19.0445 25.5791 18.8558 25.8087 18.6126 25.9778C18.3694 26.147 18.0898 26.2374 17.7737 26.249C17.4576 26.2615 17.1658 26.1591 16.8983 25.9416L11.5 21.8455Z" fill="#F97A0D"/>
<path d="M39 21.8455L33.367 25.9416C33.0879 26.1591 32.7834 26.2615 32.4536 26.249C32.1237 26.2374 31.8319 26.147 31.5782 25.9778C31.3244 25.8087 31.128 25.5791 30.989 25.2891C30.8489 24.9991 30.8423 24.685 30.9692 24.3466L33.1386 17.6407L27.6198 13.9071C27.3154 13.7137 27.1251 13.46 27.0489 13.1459C26.9728 12.8317 26.9855 12.5417 27.087 12.2759C27.1885 12.0101 27.3661 11.7742 27.6198 11.5683C27.8736 11.3634 28.1781 11.2609 28.5333 11.2609H35.3462L37.5537 4.30121C37.6806 3.96289 37.8775 3.70287 38.1444 3.52114C38.4103 3.34038 38.6955 3.25 39 3.25C39.3045 3.25 39.5897 3.34038 39.8556 3.52114C40.1225 3.70287 40.3194 3.96289 40.4463 4.30121L42.6538 11.2609H49.4667C49.8219 11.2609 50.1264 11.3634 50.3802 11.5683C50.6339 11.7742 50.8115 12.0101 50.913 12.2759C51.0145 12.5417 51.0272 12.8317 50.9511 13.1459C50.8749 13.46 50.6846 13.7137 50.3802 13.9071L44.8614 17.6407L47.0308 24.3466C47.1577 24.685 47.1516 24.9991 47.0125 25.2891C46.8725 25.5791 46.6756 25.8087 46.4218 25.9778C46.1681 26.147 45.8763 26.2374 45.5464 26.249C45.2166 26.2615 44.9121 26.1591 44.633 25.9416L39 21.8455Z" fill="#F97A0D"/>
<path d="M66 21.8455L60.8364 25.9416C60.5806 26.1591 60.3015 26.2615 59.9991 26.249C59.6967 26.2374 59.4292 26.147 59.1966 25.9778C58.9641 25.8087 58.784 25.5791 58.6566 25.2891C58.5282 24.9991 58.5221 24.685 58.6384 24.3466L60.6271 17.6407L55.5682 13.9071C55.2891 13.7137 55.1146 13.46 55.0449 13.1459C54.9751 12.8317 54.9867 12.5417 55.0797 12.2759C55.1728 12.0101 55.3356 11.7742 55.5682 11.5683C55.8008 11.3634 56.0799 11.2609 56.4055 11.2609H62.6507L64.6742 4.30121C64.7905 3.96289 64.971 3.70287 65.2157 3.52114C65.4595 3.34038 65.7209 3.25 66 3.25C66.2791 3.25 66.5405 3.34038 66.7843 3.52114C67.029 3.70287 67.2095 3.96289 67.3258 4.30121L69.3493 11.2609H75.5945C75.9201 11.2609 76.1992 11.3634 76.4318 11.5683C76.6644 11.7742 76.8272 12.0101 76.9203 12.2759C77.0133 12.5417 77.0249 12.8317 76.9551 13.1459C76.8854 13.46 76.7109 13.7137 76.4318 13.9071L71.3729 17.6407L73.3616 24.3466C73.4779 24.685 73.4723 24.9991 73.3448 25.2891C73.2164 25.5791 73.0359 25.8087 72.8034 25.9778C72.5708 26.147 72.3033 26.2374 72.0009 26.249C71.6985 26.2615 71.4194 26.1591 71.1636 25.9416L66 21.8455Z" fill="#F97A0D"/>
<path d="M92.5 21.8455L87.1017 25.9416C86.8342 26.1591 86.5424 26.2615 86.2263 26.249C85.9102 26.2374 85.6306 26.147 85.3874 25.9778C85.1442 25.8087 84.956 25.5791 84.8228 25.2891C84.6885 24.9991 84.6822 24.685 84.8038 24.3466L86.8829 17.6407L81.594 13.9071C81.3022 13.7137 81.1198 13.46 81.0469 13.1459C80.9739 12.8317 80.9861 12.5417 81.0834 12.2759C81.1806 12.0101 81.3509 11.7742 81.594 11.5683C81.8372 11.3634 82.129 11.2609 82.4694 11.2609H88.9984L91.114 4.30121C91.2355 3.96289 91.4242 3.70287 91.68 3.52114C91.9349 3.34038 92.2082 3.25 92.5 3.25C92.7918 3.25 93.0651 3.34038 93.32 3.52114C93.5758 3.70287 93.7645 3.96289 93.886 4.30121L96.0016 11.2609H102.531C102.871 11.2609 103.163 11.3634 103.406 11.5683C103.649 11.7742 103.819 12.0101 103.917 12.2759C104.014 12.5417 104.026 12.8317 103.953 13.1459C103.88 13.46 103.698 13.7137 103.406 13.9071L98.1171 17.6407L100.196 24.3466C100.318 24.685 100.312 24.9991 100.179 25.2891C100.044 25.5791 99.8558 25.8087 99.6126 25.9778C99.3694 26.147 99.0898 26.2374 98.7737 26.249C98.4576 26.2615 98.1658 26.1591 97.8983 25.9416L92.5 21.8455Z" fill="#F97A0D"/>
<path d="M118.275 22.5974L123 19.7974L127.725 22.6342L126.487 17.3289L130.65 13.7921L125.175 13.3132L123 8.30263L120.825 13.2763L115.35 13.7553L119.513 17.3289L118.275 22.5974ZM113.737 28.75L116.175 18.3974L108 11.4342L118.8 10.5132L123 0.75L127.2 10.5132L138 11.4342L129.825 18.3974L132.262 28.75L123 23.2605L113.737 28.75Z" fill="black"/>
</svg>
